<svg xmlns="http://www.w3.org/2000/svg" version="1.1" xmlns:xlink="http://www.w3.org/1999/xlink" xmlns:svgjs="http://svgjs.dev/svgjs" viewBox="0 0 800 800"><defs><linearGradient x1="50%" y1="0%" x2="50%" y2="100%" id="ccchaos-grad"><stop stop-color="hsl(206, 75%, 49%)" stop-opacity="1" offset="0%"></stop><stop stop-color="hsl(331, 90%, 56%)" stop-opacity="1" offset="100%"></stop></linearGradient></defs><g stroke-width="2" stroke="url(#ccchaos-grad)" fill="none" stroke-linecap="round"><path d="M379.23 126.95C388.61 124.77 397.96 122.29 407.26 119.74 416.57 116.84 425.86 114.43 435.11 112.74 444.39 111.52 453.68 111.46 462.95 112.66 472.3 114.78 481.69 118.25 491.11 123 500.65 128.58 510.26 135.2 519.95 142.67 529.78 150.51 539.7 158.84 549.7 167.43 559.85 175.88 570.07 184.31 580.3 192.59 590.62 200.38 600.9 207.9 611.06 215.13 621.19 221.77 631.07 228.17 640.6 234.39 649.9 240.12 658.66 245.8 666.77 251.51 674.4 256.91 681.19 262.49 687 268.31 692.12 273.98 696.12 280.01 698.91 286.41 700.91 292.77 701.66 299.57 701.15 306.79 699.93 314.01 697.57 321.67 694.14 329.75 690.31 337.83 685.68 346.32 680.41 355.19 675.23 364.07 669.76 373.32 664.2 382.94 659.27 392.56 654.68 402.33 650.54 412.25 647.35 422.2 644.72 432.33 642.65 442.64 641.54 453.03 640.91 463.65 640.67 474.5 641.17 485.47 641.84 496.7 642.55 508.16 643.66 519.72 644.56 531.48 645.1 543.35 645.71 555.18 645.75 566.97 645.14 578.53 644.32 589.77 642.73 600.5 640.32 610.5 637.57 619.74 633.96 627.89 629.53 634.72 624.72 640.44 619.13 644.61 612.81 647.13 606.16 648.51 598.86 648.36 590.99 646.82 582.88 644.74 574.29 641.85 565.31 638.56 556.18 635.89 546.73 633.7 537.03 632.45 527.26 633.02 517.31 635.22 507.23 639.25 497.12 645.51 486.92 653.49 476.68 662.88 466.43 673.53 456.16 684.53 445.89 695.14 435.63 704.97 425.38 712.97 415.15 718.42 404.92 721.31 394.94 720.91 385.23 717.34 375.51 711.31 366.02 702.85 356.79 692.59 347.51 681.5 338.46 669.93 329.64 658.57 320.75 648.2 312.06 639.01 303.58 631.31 295.01 625.54 286.62 621.42 278.42 618.8 270.11 617.9 261.96 617.98 253.99 618.67 245.91 620.16 237.99 621.53 230.25 622.43 222.4 623.17 214.74 622.91 207.28 621.5 199.74 619.35 192.43 615.87 185.38 611.09 178.3 605.48 171.51 598.67 165.05 590.84 158.62 582.35 152.56 573.06 146.92 563.18 141.38 552.9 136.29 542.24 131.7 531.37 127.26 520.32 123.36 509.21 120.02 498.13 116.88 487.02 114.31 476.01 112.37 465.18 110.62 454.36 109.49 443.73 108.99 433.34 108.67 422.95 108.96 412.79 109.89 402.88 110.94 392.96 112.55 383.51 114.68 374.51 116.86 365.48 119.5 356.88 122.56 348.7 125.59 340.46 129 332.59 132.74 325.07 136.37 317.44 140.31 310.09 144.51 302.98 148.55 295.67 152.85 288.49 157.37 281.41 161.7 274 166.26 266.57 171.03 259.06 175.62 251.13 180.43 243.03 185.46 234.74 190.34 226.02 195.47 217.11 200.84 208.06 206.09 198.73 211.62 189.39 217.43 180.18 223.16 171.02 229.2 162.25 235.52 154.06 241.82 146.35 248.43 139.52 255.34 133.74 262.24 128.77 269.45 125 276.95 122.51 284.45 120.82 292.25 120.27 300.31 120.75 308.38 121.58 316.71 123.03 325.27 124.87 333.84 126.31 342.64 127.64 351.64 128.66 360.63 128.67 369.83 128.11 379.22 126.95" stroke-dasharray="1 10" transform="rotate(0, 400, 400)" opacity="0.86"></path><path d="M381.23 138.33C390.29 136.19 399.36 133.76 408.41 131.25 417.48 128.39 426.55 125.95 435.61 124.16 444.72 122.75 453.84 122.41 462.98 123.24 472.19 124.9 481.45 127.86 490.76 132.04 500.16 137.05 509.64 143.12 519.18 150.07 528.84 157.48 538.57 165.46 548.34 173.82 558.21 182.17 568.11 190.61 577.98 199 587.89 207.04 597.71 214.88 607.35 222.48 616.9 229.57 626.17 236.43 635.03 243.09 643.63 249.27 651.69 255.34 659.06 261.37 665.98 267.05 672.06 272.83 677.2 278.75 681.7 284.47 685.14 290.45 687.45 296.73 689.06 302.91 689.52 309.46 688.81 316.4 687.5 323.29 685.15 330.59 681.82 338.31 678.17 346 673.79 354.12 668.81 362.64 663.94 371.15 658.79 380.08 653.54 389.42 648.86 398.77 644.46 408.32 640.45 418.06 637.29 427.83 634.61 437.82 632.43 448.02 631.12 458.26 630.23 468.75 629.7 479.44 629.87 490.19 630.2 501.15 630.59 512.26 631.4 523.38 632.04 534.57 632.39 545.73 632.86 556.74 632.85 567.54 632.28 577.95 631.58 587.94 630.19 597.28 628.08 605.76 625.7 613.48 622.54 620.06 618.64 625.35 614.4 629.63 609.43 632.49 603.78 633.89 597.82 634.4 591.23 633.66 584.08 631.83 576.7 629.75 568.83 627.17 560.55 624.45 552.11 622.53 543.33 621.24 534.27 620.97 525.12 622.46 515.76 625.48 506.22 630.17 496.66 636.83 486.97 644.97 477.19 654.28 467.41 664.6 457.56 675.11 447.68 685.15 437.81 694.4 427.91 701.91 418.01 707.05 408.11 709.85 398.43 709.61 388.99 706.44 379.53 701 370.28 693.25 361.26 683.73 352.2 673.31 343.34 662.28 334.68 651.25 325.97 640.95 317.44 631.55 309.09 623.38 300.67 616.88 292.42 611.86 284.33 608.23 276.16 606.25 268.13 605.31 260.28 605.1 252.33 605.83 244.53 606.69 236.92 607.35 229.22 608.11 221.7 608.17 214.38 607.33 207.02 606.01 199.87 603.57 192.99 599.98 186.1 595.7 179.49 590.3 173.21 583.89 166.98 576.87 161.12 569 155.67 560.43 150.32 551.46 145.42 541.98 141 532.16 136.74 522.12 133 511.89 129.82 501.57 126.82 491.17 124.39 480.78 122.56 470.47 120.93 460.15 119.89 449.95 119.47 439.92 119.23 429.9 119.58 420.05 120.55 410.41 121.64 400.77 123.28 391.55 125.41 382.73 127.59 373.89 130.23 365.42 133.27 357.31 136.28 349.14 139.65 341.28 143.35 333.69 146.94 325.98 150.83 318.47 154.98 311.13 158.97 303.57 163.21 296.09 167.66 288.63 171.93 280.86 176.42 273.03 181.1 265.09 185.61 256.79 190.33 248.33 195.26 239.71 200.03 230.77 205.03 221.72 210.25 212.61 215.36 203.35 220.71 194.2 226.32 185.29 231.85 176.55 237.65 168.3 243.73 160.72 249.76 153.68 256.08 147.56 262.69 142.49 269.27 138.2 276.15 135.07 283.3 133.13 290.45 131.89 297.87 131.69 305.57 132.41 313.25 133.37 321.2 134.86 329.4 136.66 337.58 138.03 346.01 139.25 354.65 140.15 363.29 140.1 372.15 139.49 381.22 138.33" stroke-dasharray="10 6" transform="rotate(4.04, 400, 400)" opacity="0.57"></path><path d="M383.91 149.7C392.67 147.61 401.46 145.24 410.26 142.79 419.07 139.97 427.92 137.52 436.78 135.65 445.68 134.09 454.61 133.49 463.58 133.97 472.62 135.2 481.71 137.64 490.84 141.27 500.06 145.69 509.34 151.17 518.66 157.55 528.08 164.46 537.54 172.02 547 180.03 556.54 188.16 566.05 196.49 575.49 204.88 584.93 213.03 594.22 221.08 603.29 228.96 612.24 236.43 620.86 243.69 629.05 250.75 636.96 257.38 644.3 263.87 650.97 270.28 657.19 276.33 662.6 282.39 667.1 288.53 671.03 294.44 673.96 300.52 675.84 306.82 677.1 312.98 677.3 319.45 676.44 326.23 675.07 332.95 672.74 340.04 669.53 347.5 666.06 354.93 661.92 362.77 657.24 371.01 652.67 379.23 647.84 387.87 642.88 396.95 638.45 406.02 634.24 415.32 630.36 424.82 627.25 434.35 624.54 444.1 622.26 454.04 620.78 464.01 619.66 474.19 618.86 484.52 618.72 494.86 618.74 505.33 618.83 515.84 619.33 526.29 619.7 536.68 619.85 546.91 620.15 556.9 620.05 566.54 619.48 575.67 618.83 584.31 617.59 592.22 615.71 599.2 612.24 608.02 601.45 618.45 594.18 619.88 588.85 619.8 582.92 618.72 576.44 616.84 569.75 614.98 562.57 612.86 554.96 610.83 547.2 609.72 539.08 609.34 530.65 610 522.14 612.34 513.37 616.1 504.4 621.34 495.39 628.31 486.22 636.53 476.93 645.69 467.63 655.65 458.23 665.66 448.77 675.12 439.3 683.81 429.78 690.84 420.23 695.67 410.67 698.38 401.31 698.29 392.14 695.51 382.96 690.62 373.97 683.55 365.17 674.76 356.34 665.04 347.68 654.59 339.21 643.96 330.69 633.83 322.33 624.35 314.13 615.85 305.88 608.77 297.77 602.97 289.82 598.43 281.79 595.43 273.91 593.47 266.19 592.33 258.4 592.2 250.75 592.39 243.28 592.6 235.75 593.13 228.4 593.21 221.25 592.66 214.07 591.86 207.12 590.15 200.42 587.48 193.73 584.29 187.33 580.09 181.26 574.94 175.24 569.25 169.59 562.72 164.34 555.45 159.2 547.77 154.5 539.52 150.27 530.82 146.2 521.88 142.63 512.63 139.61 503.19 136.76 493.63 134.47 483.97 132.77 474.3 131.25 464.59 130.31 454.92 129.97 445.34 129.8 435.75 130.21 426.27 131.21 416.93 132.33 407.58 133.98 398.58 136.12 389.92 138.3 381.24 140.92 372.86 143.93 364.77 146.91 356.61 150.25 348.69 153.89 340.97 157.45 333.13 161.29 325.42 165.37 317.8 169.32 309.99 173.49 302.19 177.87 294.36 182.09 286.28 186.51 278.1 191.12 269.82 195.56 261.25 200.19 252.55 205.02 243.75 209.7 234.74 214.59 225.69 219.68 216.69 224.65 207.66 229.86 198.84 235.3 190.37 240.64 182.17 246.24 174.54 252.1 167.64 257.89 161.32 263.96 155.92 270.29 151.57 276.59 147.95 283.17 145.42 290.01 143.99 296.83 143.17 303.93 143.27 311.28 144.18 318.62 145.24 326.22 146.74 334.06 148.47 341.9 149.75 349.98 150.86 358.29 151.65 366.6 151.52 375.13 150.87 383.9 149.7" stroke-dasharray="8 10" transform="rotate(8.08, 400, 400)" opacity="0.20"></path><path d="M387.16 161.08C395.62 159.03 404.13 156.73 412.68 154.34 421.23 151.58 429.84 149.14 438.47 147.21 447.14 145.52 455.86 144.7 464.62 144.85 473.43 145.68 482.3 147.63 491.21 150.7 500.18 154.53 509.2 159.4 518.25 165.19 527.36 171.53 536.48 178.58 545.58 186.16 554.71 193.95 563.78 202.05 572.73 210.3 581.65 218.44 590.38 226.57 598.84 234.61 607.16 242.34 615.12 249.92 622.62 257.32 629.84 264.35 636.49 271.25 642.47 278.03 648.02 284.47 652.8 290.88 656.73 297.31 660.12 303.48 662.59 309.76 664.08 316.2 665.03 322.47 665.02 328.97 664.04 335.72 662.62 342.39 660.34 349.37 657.27 356.68 653.98 363.95 650.08 371.58 645.69 379.59 641.42 387.58 636.88 395.97 632.22 404.77 628.03 413.56 624.01 422.57 620.27 431.77 617.21 440.97 614.5 450.38 612.14 459.93 610.51 469.49 609.2 479.2 608.16 488.98 607.73 498.74 607.46 508.52 607.25 518.24 607.46 527.84 607.57 537.27 607.5 546.41 607.61 555.25 607.39 563.65 606.77 571.44 605.55 581.98 600.17 597.66 595.84 602.33 590.57 604.89 576.65 604.33 568.12 602.04 562.07 600.55 555.53 599.03 548.57 597.76 541.46 597.49 533.98 598.01 526.18 599.56 518.28 602.66 510.11 607.05 501.71 612.75 493.27 619.94 484.63 628.15 475.84 637.1 467.03 646.67 458.1 656.16 449.06 665.06 440.03 673.19 430.91 679.76 421.72 684.3 412.53 686.9 403.5 686.95 394.63 684.53 385.75 680.17 377.03 673.76 368.47 665.69 359.88 656.67 351.45 646.83 343.17 636.67 334.86 626.8 326.69 617.37 318.67 608.68 310.6 601.15 302.66 594.71 294.86 589.39 287.02 585.46 279.3 582.53 271.74 580.44 264.12 579.39 256.65 578.79 249.35 578.4 242.02 578.48 234.85 578.35 227.9 577.81 220.93 577.23 214.18 575.97 207.7 573.93 201.23 571.55 195.05 568.3 189.2 564.19 183.42 559.65 177.99 554.3 172.95 548.22 168.04 541.77 163.54 534.7 159.52 527.12 155.65 519.29 152.26 511.07 149.4 502.56 146.72 493.92 144.57 485.08 142.99 476.12 141.58 467.11 140.74 458.03 140.48 448.96 140.38 439.87 140.84 430.8 141.87 421.78 143.02 412.77 144.68 404 146.81 395.5 148.98 386.97 151.57 378.66 154.54 370.57 157.49 362.41 160.78 354.41 164.37 346.55 167.88 338.57 171.66 330.66 175.69 322.79 179.58 314.74 183.7 306.68 188.01 298.56 192.17 290.24 196.53 281.82 201.06 273.32 205.43 264.61 209.99 255.83 214.74 247.02 219.33 238.09 224.12 229.21 229.1 220.48 233.95 211.83 239.02 203.48 244.31 195.57 249.5 188.01 254.92 181.07 260.58 174.91 266.17 169.33 272.01 164.67 278.1 161.01 284.15 158.03 290.45 156.07 297.01 155.1 303.54 154.65 310.34 155 317.38 156.05 324.4 157.18 331.68 158.65 339.21 160.3 346.72 161.47 354.47 162.46 362.47 163.14 370.46 162.94 378.68 162.25 387.15 161.08" stroke-dasharray="10 6" transform="rotate(12.12, 400, 400)" opacity="0.48"></path><path d="M390.87 172.45C399.04 170.46 407.27 168.23 415.55 165.91 423.83 163.22 432.18 160.81 440.56 158.83 448.97 157.04 457.44 156.03 465.95 155.89 474.5 156.34 483.1 157.84 491.72 160.37 500.4 163.62 509.1 167.87 517.81 173.03 526.55 178.76 535.28 185.23 543.95 192.3 552.63 199.65 561.2 207.39 569.62 215.38 577.98 223.37 586.11 231.44 593.95 239.51 601.63 247.37 608.92 255.14 615.74 262.79 622.28 270.14 628.26 277.36 633.58 284.47 638.51 291.29 642.7 298.04 646.08 304.77 648.99 311.25 651.04 317.79 652.2 324.41 652.88 330.87 652.68 337.48 651.62 344.29 650.18 351 647.97 357.96 645.03 365.18 641.93 372.36 638.28 379.85 634.17 387.67 630.18 395.46 625.94 403.61 621.56 412.12 617.6 420.62 613.79 429.3 610.18 438.11 607.19 446.93 604.48 455.89 602.07 464.93 600.32 473.97 598.83 483.06 597.58 492.16 596.9 501.18 596.35 510.14 595.87 518.94 595.79 527.57 595.64 535.93 595.35 543.9 595.27 551.56 594.9 558.69 594.2 565.16 590.49 579.83 579.39 590.66 573.55 590.52 566.89 589.47 550.76 586.2 541.43 585.33 534.94 585.89 528.07 587.26 520.87 589.62 513.58 593.4 505.99 598.32 498.15 604.36 490.27 611.68 482.17 619.82 473.89 628.51 465.58 637.65 457.12 646.62 448.54 654.96 439.94 662.54 431.24 668.67 422.43 672.93 413.63 675.43 404.95 675.6 396.39 673.5 387.83 669.65 379.4 663.87 371.1 656.5 362.78 648.18 354.59 638.99 346.54 629.35 338.46 619.84 330.5 610.55 322.67 601.8 314.81 593.99 307.06 587.05 299.45 581.08 291.81 576.33 284.28 572.51 276.91 569.51 269.49 567.54 262.23 566.1 255.13 564.99 248.01 564.46 241.06 563.91 234.32 563.15 227.59 562.53 221.07 561.43 214.82 559.74 208.6 557.88 202.66 555.3 197.05 551.98 191.51 548.36 186.32 543.99 181.52 538.93 176.84 533.57 172.57 527.58 168.75 521.04 165.08 514.28 161.89 507.07 159.2 499.48 156.68 491.77 154.68 483.76 153.22 475.55 151.94 467.28 151.19 458.85 151 450.32 150.97 441.78 151.47 433.17 152.53 424.51 153.7 415.85 155.36 407.34 157.47 399.01 159.62 390.65 162.18 382.44 165.11 374.35 168.02 366.22 171.26 358.17 174.79 350.19 178.24 342.11 181.96 334.05 185.92 326 189.75 317.8 193.8 309.56 198.05 301.27 202.15 292.82 206.44 284.31 210.9 275.74 215.21 267.06 219.7 258.36 224.36 249.69 228.88 241.02 233.57 232.48 238.45 224.17 243.21 216.03 248.16 208.28 253.31 201.03 258.36 194.17 263.63 187.99 269.11 182.59 274.52 177.76 280.16 173.83 286.04 170.84 291.86 168.46 297.92 167.01 304.23 166.45 310.5 166.31 317.02 166.87 323.78 168.02 330.51 169.17 337.5 170.6 344.72 172.14 351.93 173.2 359.39 174.06 367.08 174.62 374.76 174.35 382.69 173.62 390.86 172.45" stroke-dasharray="3 11" transform="rotate(16.16, 400, 400)" opacity="0.47"></path><path d="M394.91 183.82C402.79 181.89 410.73 179.74 418.72 177.5 426.72 174.89 434.78 172.52 442.89 170.53 451.01 168.66 459.19 167.48 467.41 167.09 475.65 167.2 483.93 168.26 492.23 170.29 500.56 172.97 508.9 176.6 517.21 181.12 525.54 186.21 533.82 192.06 542.01 198.54 550.18 205.37 558.23 212.64 566.08 220.25 573.85 227.96 581.37 235.83 588.57 243.78 595.59 251.62 602.23 259.45 608.39 267.21 614.27 274.76 619.6 282.21 624.31 289.57 628.65 296.69 632.29 303.73 635.18 310.73 637.64 317.51 639.33 324.3 640.19 331.13 640.64 337.79 640.31 344.56 639.18 351.46 637.74 358.25 635.61 365.23 632.83 372.42 629.92 379.55 626.51 386.93 622.67 394.56 618.96 402.18 615 410.09 610.9 418.28 607.18 426.47 603.55 434.77 600.1 443.14 597.18 451.5 594.49 459.93 592.05 468.37 590.19 476.79 588.56 485.18 587.13 493.47 586.22 501.68 585.42 509.73 584.69 517.52 584.34 525.13 583.94 532.39 583.43 539.19 582.87 548.66 580.5 563.78 578.41 569.1 571.88 574.47 556.7 574.88 549.73 573.65 544.79 573.3 539.4 573.2 533.6 573.56 527.69 574.94 521.39 577.1 514.76 580.18 508.05 584.53 501.03 589.88 493.74 596.17 486.41 603.53 478.84 611.53 471.07 619.9 463.27 628.6 455.29 637.04 447.16 644.82 439.02 651.88 430.74 657.57 422.34 661.55 413.94 663.95 405.63 664.23 397.41 662.44 389.19 659.05 381.06 653.87 373.05 647.19 365.03 639.57 357.1 631.04 349.3 621.98 341.47 612.89 333.75 603.86 326.14 595.17 318.51 587.21 310.99 579.93 303.6 573.45 296.18 568.02 288.88 563.41 281.72 559.57 274.54 556.71 267.5 554.41 260.63 552.52 253.75 551.28 247.05 550.16 240.55 549 234.07 548.11 227.81 546.92 221.81 545.33 215.86 543.71 210.18 541.53 204.82 538.74 199.55 535.78 194.61 532.16 190.05 527.91 185.62 523.44 181.58 518.37 177.98 512.75 174.52 506.95 171.53 500.65 169.01 493.94 166.66 487.11 164.81 479.93 163.48 472.46 162.31 464.93 161.66 457.16 161.54 449.21 161.57 441.23 162.12 433.1 163.19 424.83 164.37 416.56 166.03 408.35 168.11 400.22 170.24 392.08 172.76 384 175.63 375.97 178.49 367.91 181.67 359.87 185.13 351.84 188.52 343.75 192.18 335.63 196.05 327.49 199.83 319.26 203.81 310.98 207.98 302.65 212.02 294.24 216.25 285.78 220.63 277.33 224.88 268.83 229.3 260.38 233.88 252.04 238.32 243.77 242.94 235.72 247.72 227.96 252.38 220.46 257.22 213.39 262.25 206.88 267.18 200.79 272.31 195.38 277.64 190.75 282.88 186.66 288.35 183.42 294.03 181.06 299.65 179.23 305.5 178.24 311.58 178.03 317.61 178.14 323.88 178.86 330.38 180.06 336.85 181.21 343.56 182.56 350.51 183.99 357.43 184.92 364.6 185.65 372 186.09 379.39 185.75 387.03 184.99 394.9 183.83" stroke-dasharray="8 1" transform="rotate(20.200000000000003, 400, 400)" opacity="0.79"></path><path d="M399.14 195.2C406.71 193.33 414.36 191.26 422.05 189.11 429.75 186.59 437.5 184.27 445.3 182.29 453.11 180.37 460.97 179.06 468.85 178.45 476.75 178.25 484.67 178.92 492.59 180.47 500.53 182.61 508.45 185.64 516.32 189.52 524.19 193.96 531.99 199.15 539.66 204.98 547.3 211.21 554.78 217.94 562.05 225.06 569.21 232.35 576.11 239.89 582.67 247.58 589.05 255.26 595.04 262.99 600.56 270.72 605.82 278.32 610.54 285.87 614.66 293.36 618.46 300.67 621.6 307.91 624.04 315.1 626.12 322.11 627.47 329.11 628.08 336.1 628.35 342.96 627.9 349.87 626.74 356.85 625.33 363.74 623.28 370.74 620.66 377.89 617.94 384.99 614.76 392.26 611.2 399.71 607.75 407.15 604.08 414.8 600.24 422.65 596.75 430.5 593.31 438.38 590.01 446.25 587.18 454.12 584.52 461.96 582.07 469.73 580.14 477.47 578.38 485.09 576.8 492.54 575.68 499.89 574.66 507 573.71 513.79 572.79 523.49 570.89 540.15 569.62 546.78 561.15 558.5 546.16 560.77 539.84 560.37 532.92 561.02 516.91 566.08 507.94 571.22 501.77 576.04 495.29 581.7 488.53 588.14 481.74 595.46 474.68 603.25 467.41 611.27 460.12 619.49 452.62 627.4 444.95 634.64 437.27 641.18 429.43 646.47 421.45 650.18 413.47 652.47 405.53 652.85 397.67 651.34 389.81 648.39 382.02 643.78 374.31 637.76 366.6 630.82 358.97 622.97 351.44 614.51 343.9 605.92 336.44 597.24 329.09 588.73 321.72 580.75 314.46 573.28 307.31 566.43 300.14 560.47 293.09 555.21 286.18 550.64 279.26 546.96 272.48 543.84 265.87 541.17 259.26 539.16 252.83 537.38 246.6 535.68 240.4 534.34 234.42 532.87 228.69 531.14 220.32 528.49 205.2 520.85 198.56 515.64 194.38 511.84 190.59 507.49 187.21 502.62 183.97 497.61 181.18 492.12 178.84 486.18 176.67 480.15 174.96 473.72 173.75 466.95 172.7 460.12 172.14 453 172.09 445.61 172.18 438.21 172.76 430.57 173.85 422.71 175.04 414.86 176.68 406.99 178.73 399.11 180.83 391.24 183.3 383.35 186.1 375.45 188.91 367.53 192.02 359.59 195.4 351.63 198.72 343.62 202.3 335.57 206.1 327.48 209.8 319.35 213.71 311.17 217.8 302.98 221.77 294.75 225.92 286.53 230.23 278.35 234.41 270.21 238.76 262.17 243.25 254.31 247.62 246.6 252.16 239.15 256.84 232.07 261.42 225.29 266.17 218.98 271.08 213.25 275.9 207.94 280.9 203.32 286.08 199.44 293.84 194.77 310.26 190.04 318.95 189.82 324.77 190.14 330.81 190.95 337.07 192.18 343.3 193.28 349.75 194.54 356.43 195.83 363.09 196.63 369.98 197.23 377.1 197.55 384.2 197.14 391.55 196.36 399.13 195.2" stroke-dasharray="6 7" transform="rotate(24.24, 400, 400)" opacity="0.47"></path><path d="M403.39 206.57C410.66 204.77 417.99 202.79 425.37 200.73 432.75 198.31 440.17 196.06 447.63 194.1 455.1 192.16 462.6 190.75 470.11 189.96 477.63 189.5 485.16 189.82 492.66 190.93 500.16 192.56 507.63 195.02 515.03 198.28 522.4 202.05 529.68 206.57 536.82 211.73 543.89 217.3 550.79 223.41 557.46 229.94 564.02 236.72 570.29 243.79 576.23 251.09 581.99 258.46 587.35 265.95 592.25 273.5 596.92 281 601.07 288.5 604.66 295.97 607.95 303.33 610.64 310.65 612.69 317.92 614.42 325.07 615.49 332.18 615.89 339.27 616 346.25 615.47 353.25 614.3 360.26 612.92 367.21 610.99 374.21 608.53 381.29 606 388.33 603.05 395.47 599.75 402.72 596.57 409.95 593.15 417.32 589.58 424.8 586.31 432.28 583.07 439.71 579.92 447.05 577.18 454.38 574.58 461.61 572.14 468.69 570.14 475.72 568.3 482.57 566.59 489.17 564.69 498.78 561.66 515.99 560.3 523.33 554.59 539.75 544.76 546.77 540.34 546.9 535.38 547.31 523.32 549.56 516.25 552.18 511.34 554.99 506.07 558.48 500.47 562.7 494.81 567.88 488.84 573.76 482.59 580.25 476.31 587.45 469.76 594.97 462.98 602.61 456.18 610.34 449.16 617.71 441.95 624.42 434.74 630.47 427.34 635.35 419.79 638.8 412.23 640.99 404.7 641.44 397.22 640.2 389.73 637.66 382.3 633.59 374.92 628.2 367.55 621.94 360.24 614.76 353.01 606.94 345.77 598.89 338.61 590.64 331.54 582.42 324.47 574.55 317.49 567.02 310.62 559.97 303.74 553.62 296.97 547.85 290.34 542.67 283.71 538.28 277.21 534.41 270.88 530.99 264.57 528.22 258.43 525.74 252.5 523.42 243.76 520.57 227.56 514.69 220.21 511.19 213.31 507.35 201.38 497.36 196.45 491.14 192.15 484.32 185.92 468.36 184.05 459.33 183.12 453.15 182.65 446.62 182.66 439.79 182.8 432.93 183.42 425.79 184.51 418.38 185.7 410.96 187.32 403.46 189.33 395.9 191.38 388.34 193.8 380.72 196.54 373.05 199.27 365.36 202.3 357.62 205.6 349.84 208.85 342.04 212.34 334.19 216.04 326.31 219.67 318.42 223.49 310.51 227.49 302.61 231.39 294.73 235.46 286.9 239.68 279.17 243.79 271.53 248.06 264.05 252.47 256.8 256.77 249.75 261.22 243.02 265.81 236.69 270.3 230.68 274.95 225.17 279.75 220.24 286.9 213.79 301.94 204.98 309.86 202.7 317.87 201.64 334.81 202.71 343.75 204.35 349.74 205.38 355.96 206.53 362.38 207.67 368.78 208.33 375.4 208.8 382.23 209.01 389.06 208.53 396.11 207.72 403.38 206.58" stroke-dasharray="1 6" transform="rotate(28.28, 400, 400)" opacity="0.35"></path><path d="M407.52 217.95C414.48 216.21 421.49 214.32 428.52 212.36 435.56 210.06 442.64 207.89 449.73 205.97 456.83 204.04 463.95 202.56 471.06 201.62 478.17 200.94 485.26 200.95 492.31 201.67 499.36 202.83 506.34 204.75 513.23 207.42 520.09 210.55 526.83 214.39 533.4 218.87 539.91 223.75 546.23 229.18 552.29 235.07 558.25 241.23 563.91 247.75 569.24 254.54 574.39 261.46 579.16 268.56 583.49 275.78 587.6 283.02 591.23 290.31 594.32 297.62 597.16 304.88 599.45 312.13 601.14 319.35 602.57 326.49 603.4 333.6 603.63 340.68 603.62 347.69 603.03 354.68 601.87 361.66 600.55 368.58 598.73 375.52 596.43 382.48 594.09 389.41 591.38 396.38 588.33 403.39 585.4 410.38 582.24 417.43 578.92 424.52 575.87 431.61 572.82 438.56 569.82 445.36 567.19 452.14 564.66 458.75 562.23 465.14 560.21 471.49 558.29 477.59 556.48 483.4 554.36 491.8 550.77 506.52 549.12 512.64 542.8 526.22 533.16 532.71 529.04 533.43 524.47 534.66 513.41 538.93 506.95 542.57 502.46 545.97 497.63 549.97 492.49 554.59 487.29 560.02 481.8 566.01 476.03 572.47 470.22 579.47 464.16 586.68 457.85 593.9 451.53 601.14 444.98 607.98 438.24 614.16 431.48 619.73 424.53 624.23 417.42 627.43 410.3 629.51 403.18 630.03 396.09 629.02 389 626.85 381.93 623.29 374.92 618.51 367.91 612.9 360.94 606.4 354.04 599.23 347.14 591.77 340.3 584.01 333.55 576.16 326.8 568.52 320.13 561.08 313.56 553.96 307 547.38 300.55 541.26 294.22 535.62 287.91 530.65 281.73 526.14 275.71 522.06 269.72 518.58 263.9 515.4 258.28 512.45 250.02 508.71 234.77 501.65 227.87 497.9 221.41 494.04 210.29 484.63 205.73 478.94 201.75 472.78 196.05 458.35 194.38 450.14 193.55 444.51 193.17 438.52 193.24 432.19 193.44 425.85 194.08 419.2 195.17 412.24 196.36 405.28 197.95 398.19 199.91 391 201.91 383.81 204.26 376.53 206.92 369.17 209.58 361.82 212.52 354.39 215.72 346.92 218.88 339.45 222.28 331.93 225.88 324.41 229.42 316.9 233.15 309.41 237.05 301.96 240.86 294.58 244.84 287.29 248.97 280.14 253 273.12 257.18 266.31 261.49 259.79 265.71 253.48 270.07 247.52 274.56 242 278.97 236.79 283.52 232.08 288.21 227.94 295.2 222.61 309.85 215.68 317.53 214.09 325.3 213.51 341.67 214.96 350.29 216.55 356.06 217.49 362.04 218.5 368.21 219.49 374.35 220.01 380.71 220.35 387.26 220.44 393.8 219.91 400.56 219.08 407.51 217.95" stroke-dasharray="2 11" transform="rotate(32.32, 400, 400)" opacity="0.56"></path><path d="M411.39 229.32C418.02 227.66 424.68 225.87 431.36 224.01 438.04 221.82 444.75 219.76 451.45 217.9 458.16 215.99 464.87 214.47 471.54 213.42 478.22 212.57 484.86 212.32 491.43 212.7 497.99 213.44 504.47 214.87 510.84 216.97 517.17 219.5 523.35 222.68 529.36 226.48 535.3 230.66 541.03 235.38 546.51 240.58 551.88 246.07 556.95 251.94 561.69 258.13 566.28 264.49 570.49 271.08 574.28 277.84 577.88 284.67 581.02 291.61 583.68 298.6 586.11 305.61 588.03 312.64 589.42 319.66 590.59 326.65 591.22 333.62 591.31 340.56 591.2 347.47 590.58 354.34 589.46 361.18 588.2 368 586.5 374.79 584.38 381.55 582.23 388.3 579.73 395.04 576.94 401.76 574.24 408.47 571.33 415.17 568.26 421.84 565.42 428.5 562.56 434.97 559.73 441.23 557.21 447.47 554.75 453.48 552.37 459.23 549.35 467.65 544.17 482.81 541.93 489.42 535.5 506.18 527.93 516.35 524.94 517.82 517.59 521.16 503.31 529.13 497.37 533.67 493.25 537.55 488.82 541.95 484.09 546.86 479.32 552.43 474.27 558.43 468.94 564.77 463.59 571.52 457.98 578.37 452.14 585.14 446.27 591.87 440.19 598.18 433.89 603.86 427.59 608.97 421.1 613.1 414.42 616.05 407.74 618.02 401.05 618.6 394.36 617.8 387.68 615.98 381.01 612.9 374.38 608.69 367.74 603.71 361.15 597.88 354.6 591.37 348.06 584.52 341.58 577.31 335.16 569.91 328.76 562.61 322.44 555.37 316.21 548.32 309.99 541.67 303.87 535.35 297.88 529.41 291.91 524 286.08 518.99 280.39 514.35 274.75 510.24 269.27 506.44 263.98 502.88 256.23 498.24 241.96 489.78 235.53 485.58 229.52 481.45 219.23 472.08 215.03 466.66 211.38 460.91 206.21 447.59 204.74 440.03 204.02 434.85 203.72 429.32 203.84 423.46 204.08 417.59 204.74 411.4 205.83 404.9 207 398.4 208.56 391.75 210.46 384.98 212.41 378.22 214.69 371.35 217.25 364.4 219.83 357.47 222.68 350.46 225.77 343.41 228.83 336.38 232.12 329.33 235.61 322.29 239.05 315.3 242.67 308.35 246.46 301.49 250.18 294.72 254.06 288.08 258.08 281.62 262.01 275.32 266.09 269.26 270.31 263.52 274.43 258 278.7 252.85 283.09 248.14 289.61 241.76 303.23 232.11 310.34 228.96 317.49 226.84 332.48 225.62 340.33 226.28 348.29 227.3 365.01 230.04 373.8 231.29 379.7 231.67 385.78 231.88 392.04 231.87 398.3 231.28 404.75 230.43 411.38 229.32" stroke-dasharray="3 1" transform="rotate(36.36, 400, 400)" opacity="0.13"></path><path d="M414.84 240.7C421.13 239.11 427.44 237.42 433.75 235.67 440.06 233.61 446.37 231.65 452.67 229.87 465.26 226.16 477.75 224.07 489.93 223.99 502.04 225.09 513.71 228.69 524.67 234.62 535.35 241.95 545.1 251.26 553.61 262.07 561.57 273.68 568.03 286.22 572.75 299.25 576.71 312.49 578.81 325.91 578.96 339.25 578.47 352.57 576.23 365.8 572.37 378.78 570.4 385.27 568.12 391.71 565.57 398.09 563.1 404.47 560.44 410.78 557.6 417.01 554.97 423.24 552.3 429.23 549.63 434.97 547.23 440.7 544.86 446.16 542.53 451.33 538.78 461.58 535.19 470.55 531.72 478.05 527.9 488.18 519.33 500.97 513.55 504.8 509.5 508.01 504.34 511.43 498.06 515.62 491.68 521.97 484.11 529.88 475.43 539.45 466.63 551.12 456.76 563.75 445.96 576.32 440.54 582.54 434.89 588.34 429.05 593.52 423.19 598.19 417.14 601.96 410.91 604.68 404.67 606.54 398.41 607.15 392.14 606.55 385.88 605.05 379.62 602.4 373.38 598.73 360.92 589.39 348.56 577.25 336.46 563.6 324.42 549.93 312.67 536.46 301.38 523.91 290.21 513.01 279.56 503.35 269.64 494.78 259.94 487.75 251.06 481.18 243.22 474.64 235.73 468.81 229.39 462.35 224.38 455 219.84 447.77 216.7 439.37 215.12 429.75 214.4 422.35 215.08 406.01 216.49 397.08 217.64 391.03 219.16 384.84 221 378.54 222.88 372.24 225.08 365.85 227.55 359.38 232.51 346.51 238.48 333.45 245.24 320.5 251.83 307.81 259.13 295.49 267 283.94 274.58 273.04 282.72 263.32 291.34 255.21 299.66 248.15 308.52 242.99 317.86 239.94 326.97 237.8 336.65 237.47 346.88 238.7 356.97 239.75 367.7 241.37 379.03 243.07 384.67 243.3 390.48 243.39 396.45 243.28 402.41 242.64 408.54 241.78 414.83 240.7" stroke-dasharray="1 2" transform="rotate(40.400000000000006, 400, 400)" opacity="0.85"></path><path d="M417.76 252.07C429.63 248.65 441.51 245.1 453.25 241.88 464.99 238.28 476.54 236.06 487.73 235.57 498.82 235.98 509.42 238.61 519.28 243.35 528.88 249.32 537.54 257.21 545.01 266.59 551.99 276.8 557.58 288.06 561.56 299.94 564.93 312.15 566.62 324.67 566.57 337.22 566.04 349.83 563.94 362.36 560.4 374.64 556.85 386.92 552.3 398.95 546.94 410.52 542.28 422.09 537.47 432.61 532.73 441.97 528.99 451.25 525.31 459.28 521.7 465.98 517.48 475.21 508.28 487.98 502.45 492.84 498.47 496.95 493.53 501.45 487.62 506.76 481.66 513.97 474.64 522.5 466.63 532.32 458.52 543.76 449.43 555.76 439.46 567.44 429.44 578.63 418.58 587.63 407 593.3 395.42 596 383.71 594.3 372.04 588.64 360.41 580.49 348.85 569.65 337.54 557.18 326.29 544.4 315.31 531.45 304.79 519.01 294.38 507.78 284.49 497.48 275.3 488.14 266.34 480.12 258.16 472.63 250.96 465.36 244.1 458.83 238.32 451.97 233.79 444.53 229.69 437.3 226.89 429.17 225.54 420.05 224.62 410.94 225.12 400.76 227.15 389.55 229.47 378.34 233.09 366.67 237.79 354.8 242.56 343.01 248.27 331.16 254.75 319.54 261.11 308.21 268.14 297.37 275.73 287.39 283.08 278.04 290.97 269.89 299.31 263.29 307.4 257.58 315.99 253.58 325.01 251.43 333.84 249.93 343.19 249.93 353.02 251.2 362.73 252.12 373 253.46 383.8 254.81 394.54 254.59 405.88 253.7 417.75 252.07" stroke-dasharray="3 9" transform="rotate(44.44, 400, 400)" opacity="0.96"></path><path d="M420.04 263.45C431.19 260.23 442.26 256.93 453.13 253.93 463.98 250.48 474.59 248.21 484.78 247.39 494.87 247.25 504.42 249.04 513.22 252.7 521.77 257.41 529.42 263.9 535.92 271.85 542.01 280.6 546.81 290.46 550.16 301.04 553.01 312.02 554.37 323.43 554.19 334.96 553.63 346.63 551.7 358.28 548.48 369.69 545.29 381.15 541.17 392.31 536.28 402.99 531.99 413.67 527.48 423.31 522.95 431.84 519.26 440.32 515.56 447.66 511.85 453.85 507.32 462.61 497.59 476.1 491.71 482.13 487.76 487.12 483 492.58 477.4 498.82 471.79 506.66 465.26 515.57 457.84 525.41 450.36 536.45 441.99 547.73 432.79 558.48 423.56 568.65 413.55 576.79 402.84 581.93 392.14 584.51 381.29 583.22 370.48 578.42 359.69 571.39 348.97 561.82 338.47 550.59 328.05 538.84 317.89 526.62 308.16 514.57 298.56 503.32 289.45 492.71 281.01 482.87 272.79 474.1 265.32 465.85 258.78 457.95 252.55 450.73 247.32 443.41 243.27 435.77 239.59 428.39 237.12 420.38 236 411.64 235.25 402.94 235.83 393.4 237.81 383.04 240.07 372.68 243.52 362.02 248 351.29 252.54 340.65 257.99 330.08 264.16 319.86 270.25 309.93 276.99 300.6 284.26 292.18 291.34 284.31 298.94 277.62 306.97 272.39 314.79 267.84 323.07 264.82 331.76 263.39 340.28 262.35 349.26 262.54 358.67 263.74 367.97 264.48 377.76 265.51 388 266.51 398.2 266.07 408.9 265.06 420.04 263.45" stroke-dasharray="5 2" transform="rotate(48.48, 400, 400)" opacity="0.94"></path><path d="M421.61 274.82C431.99 271.82 442.24 268.78 452.22 266.01 462.19 262.77 471.85 260.5 481.05 259.46 490.15 258.89 498.69 259.97 506.48 262.69 514.05 266.25 520.74 271.44 526.37 278.01 531.66 285.31 535.77 293.72 538.57 302.92 540.98 312.54 542.07 322.68 541.8 333.05 541.26 343.59 539.5 354.2 536.6 364.63 533.76 375.13 530.06 385.37 525.62 395.17 521.69 404.97 517.49 413.82 513.19 421.68 509.6 429.52 505.91 436.39 502.17 442.31 499.08 448.32 495.78 453.55 492.22 458.16 489.08 463.18 485.49 467.97 481.37 472.78 477.44 478.54 472.82 484.8 467.48 491.74 462.18 499.97 456.07 509.01 449.19 518.67 442.27 529.16 434.56 539.65 426.11 549.45 417.62 558.62 408.42 565.92 398.58 570.56 388.75 573.01 378.77 572.08 368.82 568.07 358.9 562.09 349.03 553.76 339.38 543.78 329.81 533.15 320.48 521.84 311.57 510.42 302.79 499.46 294.49 488.86 286.82 478.82 279.35 469.59 272.59 460.83 266.7 452.43 261.09 444.65 256.41 436.9 252.81 429.05 249.55 421.48 247.41 413.52 246.49 405.09 245.9 396.71 246.54 387.74 248.47 378.19 250.64 368.64 253.93 358.99 258.16 349.41 262.47 339.92 267.62 330.65 273.47 321.83 279.25 313.27 285.67 305.38 292.59 298.42 299.37 291.91 306.64 286.53 314.31 282.46 321.82 278.89 329.77 276.65 338.07 275.72 346.24 274.99 354.82 275.25 363.76 276.29 372.63 276.8 381.91 277.5 391.57 278.16 401.19 277.52 411.23 276.41 421.61 274.82" stroke-dasharray="6 1" transform="rotate(52.52, 400, 400)" opacity="0.82"></path><path d="M422.4 286.19C432 283.42 441.41 280.64 450.5 278.11 459.58 275.1 468.3 272.91 476.54 271.74 484.69 270.86 492.26 271.37 499.11 273.29 505.76 275.86 511.58 279.88 516.43 285.17 520.99 291.08 524.49 298.07 526.84 305.87 528.87 314.08 529.75 322.87 529.44 331.99 528.94 341.29 527.37 350.75 524.78 360.14 522.26 369.59 518.96 378.88 514.96 387.83 511.39 396.77 507.5 404.92 503.45 412.24 499.99 419.58 496.37 426.14 492.66 431.97 489.48 437.95 486.09 443.39 482.46 448.43 479.21 453.9 475.56 459.32 471.46 464.86 467.55 471.23 463.06 478.06 457.97 485.43 452.93 493.81 447.21 502.75 440.82 512.04 434.41 521.86 427.31 531.48 419.56 540.32 411.78 548.53 403.37 555.03 394.38 559.18 385.39 561.5 376.28 560.89 367.19 557.58 358.14 552.59 349.15 545.44 340.36 536.71 331.65 527.26 323.18 516.99 315.11 506.4 307.16 496 299.66 485.72 292.76 475.79 286.04 466.42 279.99 457.41 274.74 448.76 269.74 440.6 265.6 432.56 262.45 424.58 259.58 416.85 257.74 408.93 257.02 400.79 256.59 392.7 257.27 384.26 259.13 375.48 261.21 366.7 264.31 358.01 268.28 349.56 272.33 341.17 277.17 333.14 282.66 325.65 288.12 318.37 294.18 311.8 300.71 306.14 307.15 300.82 314.05 296.54 321.33 293.42 328.48 290.62 336.04 288.94 343.91 288.35 351.69 287.77 359.83 287.98 368.27 288.8 376.66 289.04 385.4 289.43 394.44 289.76 403.45 288.94 412.8 287.75 422.4 286.19" stroke-dasharray="4 3" transform="rotate(56.56, 400, 400)" opacity="0.26"></path><path d="M422.39 297.57C431.19 295.01 439.74 292.51 447.96 290.23 456.15 287.48 463.96 285.42 471.27 284.21 478.5 283.13 485.16 283.22 491.13 284.5 496.94 286.25 501.98 289.25 506.12 293.4 510.05 298.04 513.03 303.69 514.98 310.16 516.71 316.97 517.43 324.41 517.11 332.25 516.67 340.27 515.28 348.53 513 356.85 510.8 365.22 507.88 373.55 504.3 381.67 501.07 389.79 497.5 397.31 493.73 404.19 490.43 411.11 486.93 417.46 483.29 423.31 480.1 429.31 476.69 434.99 473.04 440.45 469.72 446.32 466.05 452.24 462 458.32 458.14 465.09 453.78 472.24 448.93 479.79 444.14 488.08 438.77 496.71 432.83 505.46 426.91 514.52 420.38 523.22 413.29 531.11 406.19 538.38 398.53 544.12 390.37 547.81 382.21 549.98 373.96 549.63 365.74 546.96 357.55 542.87 349.44 536.84 341.52 529.33 333.67 521.1 326.06 511.97 318.83 502.36 311.71 492.75 305.02 483.05 298.88 473.52 292.91 464.33 287.55 455.38 282.92 446.72 278.52 438.43 274.9 430.3 272.17 422.33 269.69 414.55 268.14 406.76 267.6 398.92 267.3 391.14 268.01 383.21 269.79 375.17 271.76 367.12 274.66 359.35 278.36 351.95 282.14 344.59 286.65 337.69 291.76 331.4 296.86 325.25 302.53 319.83 308.65 315.27 314.7 310.94 321.18 307.54 328.02 305.14 334.77 302.9 341.89 301.59 349.29 301.16 356.62 300.62 364.27 300.69 372.18 301.24 380.05 301.2 388.2 301.27 396.59 301.3 404.96 300.32 413.59 299.07 422.39 297.57" stroke-dasharray="7 7" transform="rotate(60.599999999999994, 400, 400)" opacity="0.19"></path><path d="M421.57 308.94C429.56 306.61 437.26 304.37 444.61 302.36 451.93 299.9 458.86 298.01 465.29 296.83 474.56 295.56 489.83 298.44 495.52 302.69 500.15 308.45 504.83 324.51 504.83 334.19 504.46 340.95 503.26 348.04 501.28 355.29 499.38 362.6 496.81 369.98 493.64 377.32 490.75 384.65 487.5 391.58 484.02 398.08 480.91 404.62 477.58 410.81 474.07 416.67 470.92 422.69 467.55 428.56 463.95 434.33 460.63 440.46 456.99 446.69 453.03 453.1 449.24 460.02 445.04 467.24 440.42 474.71 435.88 482.68 430.85 490.82 425.36 498.89 419.88 507.09 413.9 514.86 407.45 521.8 400.99 528.17 394.06 533.18 386.71 536.43 379.35 538.44 371.94 538.32 364.59 536.22 357.26 532.94 350.01 527.95 342.96 521.61 335.97 514.59 329.21 506.65 322.81 498.14 316.51 489.49 310.61 480.61 305.22 471.72 299.98 463.01 295.29 454.41 291.27 446.02 287.44 437.88 284.32 429.89 281.99 422.1 279.88 414.46 278.59 406.9 278.21 399.44 278.03 392.03 278.76 384.62 280.45 377.29 282.3 369.95 284.99 363.02 288.4 356.56 291.89 350.13 296.05 344.23 300.76 338.96 305.48 333.79 310.72 329.31 316.39 325.63 322.01 322.07 328.04 319.32 334.4 317.42 340.69 315.56 347.32 314.45 354.21 314.04 361.04 313.44 368.15 313.31 375.48 313.55 382.77 313.24 390.31 313.01 398.01 312.77 405.7 311.67 413.58 310.38 421.57 308.94" stroke-dasharray="11 1" transform="rotate(64.64, 400, 400)" opacity="0.92"></path><path d="M419.98 320.32C427.14 318.22 434 316.25 440.5 314.49 450.01 311.5 466.71 308.23 473.65 308.49 479.84 309.87 488.64 317.34 491.09 323.21 492.61 330.06 491.81 346.6 489.61 355.84 487.98 362.12 485.77 368.59 482.98 375.17 480.42 381.75 477.5 388.12 474.32 394.25 471.44 400.41 468.3 406.4 464.98 412.22 461.94 418.18 458.66 424.11 455.17 430.03 451.91 436.23 448.36 442.56 444.55 449.02 440.87 455.85 436.85 462.89 432.49 470.03 428.21 477.49 423.52 484.97 418.46 492.26 413.42 499.55 407.97 506.37 402.14 512.38 396.31 517.9 390.09 522.23 383.52 525.06 376.96 526.9 370.37 526.96 363.86 525.35 357.37 522.79 350.97 518.76 344.78 513.53 338.63 507.67 332.71 500.93 327.13 493.59 321.63 486.03 316.49 478.12 311.83 470.1 307.29 462.11 303.25 454.13 299.81 446.27 296.53 438.55 293.87 430.95 291.93 423.54 290.15 416.24 289.11 409.06 288.87 402.07 288.8 395.12 289.52 388.28 291.11 381.64 292.83 374.99 295.29 368.83 298.41 363.21 301.59 357.59 305.38 352.54 309.67 348.11 313.98 343.72 318.77 339.99 323.95 336.96 329.11 333.97 334.64 331.67 340.47 330.07 346.27 328.43 352.36 327.38 358.68 326.89 364.96 326.15 371.49 325.79 378.19 325.71 384.87 325.14 391.74 324.64 398.72 324.17 405.71 322.98 412.82 321.68 419.98 320.32" stroke-dasharray="0 7" transform="rotate(68.68, 400, 400)" opacity="0.62"></path><path d="M417.67 331.69C430.34 327.42 441.76 324.13 451.45 322.39 460.97 320.24 468.54 320.84 473.68 324.23 478.5 328.21 480.84 334.96 480.47 343.82 480.04 353 477.29 363.76 472.32 375.47 468.03 387.17 462.41 398.73 456.01 409.96 450.46 421.61 443.92 433.64 436.55 445.9 429.65 459.1 421.5 472.69 412.23 485.52 403.06 498.05 392.53 508.11 380.93 513.68 369.33 516.19 357.82 512.9 347.05 505.05 336.43 495.09 326.77 482.28 318.74 468.34 311.08 454.21 305.3 439.85 301.97 426.16 299.18 412.69 298.97 399.71 301.77 387.78 305.01 375.85 310.83 365.99 318.5 358.44 326.27 350.9 335.74 345.69 346.26 342.84 356.73 339.6 368.27 338.02 380.33 337.68 392.37 335.6 405.01 333.62 417.67 331.69" stroke-dasharray="2 2" transform="rotate(72.72, 400, 400)" opacity="0.23"></path><path d="M414.73 343.07C425.74 339.37 435.55 336.65 443.77 335.25 455.08 333.5 467.67 341.69 468.41 351.48 468.14 358.84 465.89 367.88 461.66 378.16 457.95 388.44 452.94 399.05 447.14 409.68 441.97 420.6 435.85 431.98 429.02 443.47 422.55 455.48 415.05 467.55 406.7 478.63 398.43 489.25 389.12 497.65 379.02 502.31 368.92 504.65 359.02 502.29 349.87 496.16 340.82 488.33 332.67 477.87 325.98 466.16 319.57 454.07 314.79 441.5 312.14 429.35 309.89 417.29 309.87 405.67 312.43 395.12 315.34 384.57 320.48 375.98 327.24 369.46 334.12 362.88 342.49 358.24 351.8 355.49 361.11 352.26 371.34 350.33 381.99 349.41 392.63 347.06 403.73 344.92 414.73 343.07" stroke-dasharray="1 8" transform="rotate(76.76, 400, 400)" opacity="0.07"></path><path d="M411.26 354.44C420.62 351.32 428.88 349.14 435.75 348.11 445.2 346.67 455.73 352.91 456.44 360.73 456.32 366.61 454.52 374.11 451 382.99 447.85 391.87 443.5 401.35 438.38 411.03 433.69 420.89 428.13 431.19 421.95 441.46 416.04 451.96 409.29 462.28 401.9 471.53 394.59 480.28 386.49 487.13 377.86 490.93 369.23 493.06 360.89 491.48 353.27 486.86 345.72 480.94 339.01 472.74 333.56 463.28 328.32 453.4 324.48 442.87 322.44 432.52 320.68 422.15 320.79 412.09 323.09 402.94 325.65 393.78 330.09 386.33 335.92 380.62 341.86 374.8 349.09 370.54 357.12 367.77 365.19 364.51 374.03 362.27 383.2 360.88 392.39 358.37 401.9 356.19 411.26 354.44" stroke-dasharray="5 9" transform="rotate(80.80000000000001, 400, 400)" opacity="0.63"></path><path d="M407.39 365.82C418.5 362.43 435.21 359.93 440.29 361.73 443.88 364.94 443.88 378.95 440.34 389.49 437.75 396.96 434.08 405.11 429.69 413.53 425.59 422.03 420.71 430.88 415.3 439.59 410.07 448.34 404.18 456.78 397.83 464.18 391.54 471.14 384.68 476.54 377.5 479.56 370.31 481.43 363.48 480.46 357.31 477.14 351.19 472.9 345.82 466.77 341.53 459.49 337.37 451.82 334.38 443.44 332.87 435.02 331.55 426.54 331.76 418.18 333.75 410.47 335.93 402.76 339.66 396.37 344.53 391.35 349.5 386.22 355.55 382.26 362.27 379.43 369.03 376.21 376.43 373.76 384.08 372.05 391.75 369.53 399.66 367.4 407.39 365.82" stroke-dasharray="5 5" transform="rotate(84.84, 400, 400)" opacity="0.63"></path><path d="M403.25 377.19C420.04 372.15 434.03 381.14 429.68 397.02 425.77 409.11 418.2 423.7 409.05 437.55 400.35 451.21 389.45 462.94 377.94 468.19 366.42 470.55 356.43 464.85 349.87 454.6 343.62 443.2 341.23 429.43 344.4 416.97 348.08 404.51 356.58 395.55 367.28 390.28 378.12 383.84 391 379.26 403.25 377.19" stroke-dasharray="1 2" transform="rotate(88.88, 400, 400)" opacity="0.98"></path><path d="M399 388.56C411.46 385.13 422.08 392.75 419.02 404.84 416.09 414.01 410.25 424.95 403.14 435.07 396.28 444.92 387.83 453.18 379.17 456.81 370.51 458.84 363.23 455.35 358.6 448.5 354.13 440.94 352.56 431.22 355.06 421.82 357.86 412.4 364.23 405.02 372.21 400.13 380.3 394.54 389.9 390.4 399 388.56" stroke-dasharray="2 3" transform="rotate(92.92, 400, 400)" opacity="0.55"></path><path d="M394.78 399.94C406.78 395.18 412.69 399.8 408.36 412.18 404.63 424.55 392.75 440.35 381.15 445.44 369.54 447.73 362.37 437.12 365.72 424.52 369.62 411.91 382.77 402.08 394.78 399.94" stroke-dasharray="2 3" transform="rotate(96.96, 400, 400)" opacity="0.74"></path></g></svg>