<svg id="visual" viewBox="0 0 2000 960" width="2000" height="960" xmlns="http://www.w3.org/2000/svg" xmlns:xlink="http://www.w3.org/1999/xlink" version="1.1"><path d="M0 164L27.8 167.2C55.7 170.3 111.3 176.7 166.8 189.5C222.3 202.3 277.7 221.7 333.2 215.3C388.7 209 444.3 177 500 162.7C555.7 148.3 611.3 151.7 666.8 172.5C722.3 193.3 777.7 231.7 833.2 234.8C888.7 238 944.3 206 1000 191.5C1055.7 177 1111.3 180 1166.8 178.3C1222.3 176.7 1277.7 170.3 1333.2 173.7C1388.7 177 1444.3 190 1500 210.8C1555.7 231.7 1611.3 260.3 1666.8 252.3C1722.3 244.3 1777.7 199.7 1833.2 175.7C1888.7 151.7 1944.3 148.3 1972.2 146.7L2000 145L2000 0L1972.2 0C1944.3 0 1888.7 0 1833.2 0C1777.7 0 1722.3 0 1666.8 0C1611.3 0 1555.7 0 1500 0C1444.3 0 1388.7 0 1333.2 0C1277.7 0 1222.3 0 1166.8 0C1111.3 0 1055.7 0 1000 0C944.3 0 888.7 0 833.2 0C777.7 0 722.3 0 666.8 0C611.3 0 555.7 0 500 0C444.3 0 388.7 0 333.2 0C277.7 0 222.3 0 166.8 0C111.3 0 55.7 0 27.8 0L0 0Z" fill="#000000"></path><path d="M0 299L27.8 307C55.7 315 111.3 331 166.8 342.2C222.3 353.3 277.7 359.7 333.2 367.7C388.7 375.7 444.3 385.3 500 377.3C555.7 369.3 611.3 343.7 666.8 348.3C722.3 353 777.7 388 833.2 392.8C888.7 397.7 944.3 372.3 1000 362.8C1055.7 353.3 1111.3 359.7 1166.8 359.7C1222.3 359.7 1277.7 353.3 1333.2 351.7C1388.7 350 1444.3 353 1500 362.5C1555.7 372 1611.3 388 1666.8 389.7C1722.3 391.3 1777.7 378.7 1833.2 373.8C1888.7 369 1944.3 372 1972.2 373.5L2000 375L2000 143L1972.2 144.7C1944.3 146.3 1888.7 149.7 1833.2 173.7C1777.7 197.7 1722.3 242.3 1666.8 250.3C1611.3 258.3 1555.7 229.7 1500 208.8C1444.3 188 1388.7 175 1333.2 171.7C1277.7 168.3 1222.3 174.7 1166.8 176.3C1111.3 178 1055.7 175 1000 189.5C944.3 204 888.7 236 833.2 232.8C777.7 229.7 722.3 191.3 666.8 170.5C611.3 149.7 555.7 146.3 500 160.7C444.3 175 388.7 207 333.2 213.3C277.7 219.7 222.3 200.3 166.8 187.5C111.3 174.7 55.7 168.3 27.8 165.2L0 162Z" fill="#3c0069"></path><path d="M0 385L27.8 388.2C55.7 391.3 111.3 397.7 166.8 405.7C222.3 413.7 277.7 423.3 333.2 437.8C388.7 452.3 444.3 471.7 500 458.8C555.7 446 611.3 401 666.8 404.2C722.3 407.3 777.7 458.7 833.2 466.7C888.7 474.7 944.3 439.3 1000 426.5C1055.7 413.7 1111.3 423.3 1166.8 425C1222.3 426.7 1277.7 420.3 1333.2 417.2C1388.7 414 1444.3 414 1500 425.2C1555.7 436.3 1611.3 458.7 1666.8 466.7C1722.3 474.7 1777.7 468.3 1833.2 465.2C1888.7 462 1944.3 462 1972.2 462L2000 462L2000 373L1972.2 371.5C1944.3 370 1888.7 367 1833.2 371.8C1777.7 376.7 1722.3 389.3 1666.8 387.7C1611.3 386 1555.7 370 1500 360.5C1444.3 351 1388.7 348 1333.2 349.7C1277.7 351.3 1222.3 357.7 1166.8 357.7C1111.3 357.7 1055.7 351.3 1000 360.8C944.3 370.3 888.7 395.7 833.2 390.8C777.7 386 722.3 351 666.8 346.3C611.3 341.7 555.7 367.3 500 375.3C444.3 383.3 388.7 373.7 333.2 365.7C277.7 357.7 222.3 351.3 166.8 340.2C111.3 329 55.7 313 27.8 305L0 297Z" fill="#5c0087"></path><path d="M0 423L27.8 427.8C55.7 432.7 111.3 442.3 166.8 448.8C222.3 455.3 277.7 458.7 333.2 469.8C388.7 481 444.3 500 500 487.2C555.7 474.3 611.3 429.7 666.8 434.5C722.3 439.3 777.7 493.7 833.2 503.3C888.7 513 944.3 478 1000 463.7C1055.7 449.3 1111.3 455.7 1166.8 455.7C1222.3 455.7 1277.7 449.3 1333.2 446.2C1388.7 443 1444.3 443 1500 457.3C1555.7 471.7 1611.3 500.3 1666.8 509.8C1722.3 519.3 1777.7 509.7 1833.2 503.3C1888.7 497 1944.3 494 1972.2 492.5L2000 491L2000 460L1972.2 460C1944.3 460 1888.7 460 1833.2 463.2C1777.7 466.3 1722.3 472.7 1666.8 464.7C1611.3 456.7 1555.7 434.3 1500 423.2C1444.3 412 1388.7 412 1333.2 415.2C1277.7 418.3 1222.3 424.7 1166.8 423C1111.3 421.3 1055.7 411.7 1000 424.5C944.3 437.3 888.7 472.7 833.2 464.7C777.7 456.7 722.3 405.3 666.8 402.2C611.3 399 555.7 444 500 456.8C444.3 469.7 388.7 450.3 333.2 435.8C277.7 421.3 222.3 411.7 166.8 403.7C111.3 395.7 55.7 389.3 27.8 386.2L0 383Z" fill="#780ea2"></path><path d="M0 510L27.8 513.2C55.7 516.3 111.3 522.7 166.8 529C222.3 535.3 277.7 541.7 333.2 548C388.7 554.3 444.3 560.7 500 544.7C555.7 528.7 611.3 490.3 666.8 493.7C722.3 497 777.7 542 833.2 546.8C888.7 551.7 944.3 516.3 1000 505C1055.7 493.7 1111.3 506.3 1166.8 514.3C1222.3 522.3 1277.7 525.7 1333.2 525.7C1388.7 525.7 1444.3 522.3 1500 535.2C1555.7 548 1611.3 577 1666.8 581.8C1722.3 586.7 1777.7 567.3 1833.2 560.8C1888.7 554.3 1944.3 560.7 1972.2 563.8L2000 567L2000 489L1972.2 490.5C1944.3 492 1888.7 495 1833.2 501.3C1777.7 507.7 1722.3 517.3 1666.8 507.8C1611.3 498.3 1555.7 469.7 1500 455.3C1444.3 441 1388.7 441 1333.2 444.2C1277.7 447.3 1222.3 453.7 1166.8 453.7C1111.3 453.7 1055.7 447.3 1000 461.7C944.3 476 888.7 511 833.2 501.3C777.7 491.7 722.3 437.3 666.8 432.5C611.3 427.7 555.7 472.3 500 485.2C444.3 498 388.7 479 333.2 467.8C277.7 456.7 222.3 453.3 166.8 446.8C111.3 440.3 55.7 430.7 27.8 425.8L0 421Z" fill="#931ebc"></path><path d="M0 539L27.8 542.2C55.7 545.3 111.3 551.7 166.8 556.3C222.3 561 277.7 564 333.2 568.8C388.7 573.7 444.3 580.3 500 569.2C555.7 558 611.3 529 666.8 532.2C722.3 535.3 777.7 570.7 833.2 570.7C888.7 570.7 944.3 535.3 1000 524.2C1055.7 513 1111.3 526 1166.8 538.8C1222.3 551.7 1277.7 564.3 1333.2 565.8C1388.7 567.3 1444.3 557.7 1500 568.8C1555.7 580 1611.3 612 1666.8 616.8C1722.3 621.7 1777.7 599.3 1833.2 591.3C1888.7 583.3 1944.3 589.7 1972.2 592.8L2000 596L2000 565L1972.2 561.8C1944.3 558.7 1888.7 552.3 1833.2 558.8C1777.7 565.3 1722.3 584.7 1666.8 579.8C1611.3 575 1555.7 546 1500 533.2C1444.3 520.3 1388.7 523.7 1333.2 523.7C1277.7 523.7 1222.3 520.3 1166.8 512.3C1111.3 504.3 1055.7 491.7 1000 503C944.3 514.3 888.7 549.7 833.2 544.8C777.7 540 722.3 495 666.8 491.7C611.3 488.3 555.7 526.7 500 542.7C444.3 558.7 388.7 552.3 333.2 546C277.7 539.7 222.3 533.3 166.8 527C111.3 520.7 55.7 514.3 27.8 511.2L0 508Z" fill="#9f24c7"></path><path d="M0 577L27.8 580.2C55.7 583.3 111.3 589.7 166.8 596C222.3 602.3 277.7 608.7 333.2 616.7C388.7 624.7 444.3 634.3 500 626.3C555.7 618.3 611.3 592.7 666.8 594.3C722.3 596 777.7 625 833.2 618.7C888.7 612.3 944.3 570.7 1000 556.2C1055.7 541.7 1111.3 554.3 1166.8 572C1222.3 589.7 1277.7 612.3 1333.2 620.3C1388.7 628.3 1444.3 621.7 1500 629.7C1555.7 637.7 1611.3 660.3 1666.8 658.8C1722.3 657.3 1777.7 631.7 1833.2 625.2C1888.7 618.7 1944.3 631.3 1972.2 637.7L2000 644L2000 594L1972.2 590.8C1944.3 587.7 1888.7 581.3 1833.2 589.3C1777.7 597.3 1722.3 619.7 1666.8 614.8C1611.3 610 1555.7 578 1500 566.8C1444.3 555.7 1388.7 565.3 1333.2 563.8C1277.7 562.3 1222.3 549.7 1166.8 536.8C1111.3 524 1055.7 511 1000 522.2C944.3 533.3 888.7 568.7 833.2 568.7C777.7 568.7 722.3 533.3 666.8 530.2C611.3 527 555.7 556 500 567.2C444.3 578.3 388.7 571.7 333.2 566.8C277.7 562 222.3 559 166.8 554.3C111.3 549.7 55.7 543.3 27.8 540.2L0 537Z" fill="#9f24c7"></path><path d="M0 635L27.8 639.7C55.7 644.3 111.3 653.7 166.8 661.7C222.3 669.7 277.7 676.3 333.2 682.8C388.7 689.3 444.3 695.7 500 682.8C555.7 670 611.3 638 666.8 639.5C722.3 641 777.7 676 833.2 672.8C888.7 669.7 944.3 628.3 1000 610.8C1055.7 593.3 1111.3 599.7 1166.8 615.7C1222.3 631.7 1277.7 657.3 1333.2 666.8C1388.7 676.3 1444.3 669.7 1500 682.3C1555.7 695 1611.3 727 1666.8 722.3C1722.3 717.7 1777.7 676.3 1833.2 668.3C1888.7 660.3 1944.3 685.7 1972.2 698.3L2000 711L2000 642L1972.2 635.7C1944.3 629.3 1888.7 616.7 1833.2 623.2C1777.7 629.7 1722.3 655.3 1666.8 656.8C1611.3 658.3 1555.7 635.7 1500 627.7C1444.3 619.7 1388.7 626.3 1333.2 618.3C1277.7 610.3 1222.3 587.7 1166.8 570C1111.3 552.3 1055.7 539.7 1000 554.2C944.3 568.7 888.7 610.3 833.2 616.7C777.7 623 722.3 594 666.8 592.3C611.3 590.7 555.7 616.3 500 624.3C444.3 632.3 388.7 622.7 333.2 614.7C277.7 606.7 222.3 600.3 166.8 594C111.3 587.7 55.7 581.3 27.8 578.2L0 575Z" fill="#931ebc"></path><path d="M0 683L27.8 687.7C55.7 692.3 111.3 701.7 166.8 708C222.3 714.3 277.7 717.7 333.2 724.2C388.7 730.7 444.3 740.3 500 730.7C555.7 721 611.3 692 666.8 692C722.3 692 777.7 721 833.2 717.8C888.7 714.7 944.3 679.3 1000 661.7C1055.7 644 1111.3 644 1166.8 658.5C1222.3 673 1277.7 702 1333.2 713.2C1388.7 724.3 1444.3 717.7 1500 727.2C1555.7 736.7 1611.3 762.3 1666.8 759.2C1722.3 756 1777.7 724 1833.2 719.2C1888.7 714.3 1944.3 736.7 1972.2 747.8L2000 759L2000 709L1972.2 696.3C1944.3 683.7 1888.7 658.3 1833.2 666.3C1777.7 674.3 1722.3 715.7 1666.8 720.3C1611.3 725 1555.7 693 1500 680.3C1444.3 667.7 1388.7 674.3 1333.2 664.8C1277.7 655.3 1222.3 629.7 1166.8 613.7C1111.3 597.7 1055.7 591.3 1000 608.8C944.3 626.3 888.7 667.7 833.2 670.8C777.7 674 722.3 639 666.8 637.5C611.3 636 555.7 668 500 680.8C444.3 693.7 388.7 687.3 333.2 680.8C277.7 674.3 222.3 667.7 166.8 659.7C111.3 651.7 55.7 642.3 27.8 637.7L0 633Z" fill="#780ea2"></path><path d="M0 779L27.8 780.5C55.7 782 111.3 785 166.8 785C222.3 785 277.7 782 333.2 788.5C388.7 795 444.3 811 500 807.7C555.7 804.3 611.3 781.7 666.8 780C722.3 778.3 777.7 797.7 833.2 799.3C888.7 801 944.3 785 1000 772.2C1055.7 759.3 1111.3 749.7 1166.8 759.3C1222.3 769 1277.7 798 1333.2 807.7C1388.7 817.3 1444.3 807.7 1500 810.8C1555.7 814 1611.3 830 1666.8 831.5C1722.3 833 1777.7 820 1833.2 821.5C1888.7 823 1944.3 839 1972.2 847L2000 855L2000 757L1972.2 745.8C1944.3 734.7 1888.7 712.3 1833.2 717.2C1777.7 722 1722.3 754 1666.8 757.2C1611.3 760.3 1555.7 734.7 1500 725.2C1444.3 715.7 1388.7 722.3 1333.2 711.2C1277.7 700 1222.3 671 1166.8 656.5C1111.3 642 1055.7 642 1000 659.7C944.3 677.3 888.7 712.7 833.2 715.8C777.7 719 722.3 690 666.8 690C611.3 690 555.7 719 500 728.7C444.3 738.3 388.7 728.7 333.2 722.2C277.7 715.7 222.3 712.3 166.8 706C111.3 699.7 55.7 690.3 27.8 685.7L0 681Z" fill="#5c0087"></path><path d="M0 827L27.8 830.2C55.7 833.3 111.3 839.7 166.8 841.2C222.3 842.7 277.7 839.3 333.2 844.2C388.7 849 444.3 862 500 858.8C555.7 855.7 611.3 836.3 666.8 834.7C722.3 833 777.7 849 833.2 849C888.7 849 944.3 833 1000 820.2C1055.7 807.3 1111.3 797.7 1166.8 804C1222.3 810.3 1277.7 832.7 1333.2 842.3C1388.7 852 1444.3 849 1500 853.8C1555.7 858.7 1611.3 871.3 1666.8 872.8C1722.3 874.3 1777.7 864.7 1833.2 867.8C1888.7 871 1944.3 887 1972.2 895L2000 903L2000 853L1972.2 845C1944.3 837 1888.7 821 1833.2 819.5C1777.7 818 1722.3 831 1666.8 829.5C1611.3 828 1555.7 812 1500 808.8C1444.3 805.7 1388.7 815.3 1333.2 805.7C1277.7 796 1222.3 767 1166.8 757.3C1111.3 747.7 1055.7 757.3 1000 770.2C944.3 783 888.7 799 833.2 797.3C777.7 795.7 722.3 776.3 666.8 778C611.3 779.7 555.7 802.3 500 805.7C444.3 809 388.7 793 333.2 786.5C277.7 780 222.3 783 166.8 783C111.3 783 55.7 780 27.8 778.5L0 777Z" fill="#3c0069"></path><path d="M0 961L27.8 961C55.7 961 111.3 961 166.8 961C222.3 961 277.7 961 333.2 961C388.7 961 444.3 961 500 961C555.7 961 611.3 961 666.8 961C722.3 961 777.7 961 833.2 961C888.7 961 944.3 961 1000 961C1055.7 961 1111.3 961 1166.8 961C1222.3 961 1277.7 961 1333.2 961C1388.7 961 1444.3 961 1500 961C1555.7 961 1611.3 961 1666.8 961C1722.3 961 1777.7 961 1833.2 961C1888.7 961 1944.3 961 1972.2 961L2000 961L2000 901L1972.2 893C1944.3 885 1888.7 869 1833.2 865.8C1777.7 862.7 1722.3 872.3 1666.8 870.8C1611.3 869.3 1555.7 856.7 1500 851.8C1444.3 847 1388.7 850 1333.2 840.3C1277.7 830.7 1222.3 808.3 1166.8 802C1111.3 795.7 1055.7 805.3 1000 818.2C944.3 831 888.7 847 833.2 847C777.7 847 722.3 831 666.8 832.7C611.3 834.3 555.7 853.7 500 856.8C444.3 860 388.7 847 333.2 842.2C277.7 837.3 222.3 840.7 166.8 839.2C111.3 837.7 55.7 831.3 27.8 828.2L0 825Z" fill="#000000"></path></svg>