<svg id="visual" viewBox="0 0 1800 900" width="1800" height="900" xmlns="http://www.w3.org/2000/svg" xmlns:xlink="http://www.w3.org/1999/xlink" version="1.1"><path d="M0 199L23 196C46 193 92 187 138.2 182.5C184.3 178 230.7 175 276.8 169C323 163 369 154 415.2 161.5C461.3 169 507.7 193 553.8 185.5C600 178 646 139 692.2 125.5C738.3 112 784.7 124 830.8 140.5C877 157 923 178 969.2 176.5C1015.3 175 1061.7 151 1107.8 130C1154 109 1200 91 1246.2 115C1292.3 139 1338.7 205 1384.8 233.5C1431 262 1477 253 1523.2 227.5C1569.3 202 1615.7 160 1661.8 133C1708 106 1754 94 1777 88L1800 82L1800 0L1777 0C1754 0 1708 0 1661.8 0C1615.7 0 1569.3 0 1523.2 0C1477 0 1431 0 1384.8 0C1338.7 0 1292.3 0 1246.2 0C1200 0 1154 0 1107.8 0C1061.7 0 1015.3 0 969.2 0C923 0 877 0 830.8 0C784.7 0 738.3 0 692.2 0C646 0 600 0 553.8 0C507.7 0 461.3 0 415.2 0C369 0 323 0 276.8 0C230.7 0 184.3 0 138.2 0C92 0 46 0 23 0L0 0Z" fill="#e5e5e5"></path><path d="M0 226L23 227.5C46 229 92 232 138.2 229C184.3 226 230.7 217 276.8 209.5C323 202 369 196 415.2 203.5C461.3 211 507.7 232 553.8 227.5C600 223 646 193 692.2 178C738.3 163 784.7 163 830.8 176.5C877 190 923 217 969.2 215.5C1015.3 214 1061.7 184 1107.8 163C1154 142 1200 130 1246.2 155.5C1292.3 181 1338.7 244 1384.8 272.5C1431 301 1477 295 1523.2 266.5C1569.3 238 1615.7 187 1661.8 160C1708 133 1754 130 1777 128.5L1800 127L1800 80L1777 86C1754 92 1708 104 1661.8 131C1615.7 158 1569.3 200 1523.2 225.5C1477 251 1431 260 1384.8 231.5C1338.7 203 1292.3 137 1246.2 113C1200 89 1154 107 1107.8 128C1061.7 149 1015.3 173 969.2 174.5C923 176 877 155 830.8 138.5C784.7 122 738.3 110 692.2 123.5C646 137 600 176 553.8 183.5C507.7 191 461.3 167 415.2 159.5C369 152 323 161 276.8 167C230.7 173 184.3 176 138.2 180.5C92 185 46 191 23 194L0 197Z" fill="#ccb5ce"></path><path d="M0 298L23 295C46 292 92 286 138.2 284.5C184.3 283 230.7 286 276.8 280C323 274 369 259 415.2 263.5C461.3 268 507.7 292 553.8 289C600 286 646 256 692.2 244C738.3 232 784.7 238 830.8 247C877 256 923 268 969.2 272.5C1015.3 277 1061.7 274 1107.8 268C1154 262 1200 253 1246.2 268C1292.3 283 1338.7 322 1384.8 346C1431 370 1477 379 1523.2 352C1569.3 325 1615.7 262 1661.8 233.5C1708 205 1754 211 1777 214L1800 217L1800 125L1777 126.5C1754 128 1708 131 1661.8 158C1615.7 185 1569.3 236 1523.2 264.5C1477 293 1431 299 1384.8 270.5C1338.7 242 1292.3 179 1246.2 153.5C1200 128 1154 140 1107.8 161C1061.7 182 1015.3 212 969.2 213.5C923 215 877 188 830.8 174.5C784.7 161 738.3 161 692.2 176C646 191 600 221 553.8 225.5C507.7 230 461.3 209 415.2 201.5C369 194 323 200 276.8 207.5C230.7 215 184.3 224 138.2 227C92 230 46 227 23 225.5L0 224Z" fill="#b286b8"></path><path d="M0 334L23 331C46 328 92 322 138.2 317.5C184.3 313 230.7 310 276.8 302.5C323 295 369 283 415.2 290.5C461.3 298 507.7 325 553.8 325C600 325 646 298 692.2 284.5C738.3 271 784.7 271 830.8 277C877 283 923 295 969.2 298C1015.3 301 1061.7 295 1107.8 289C1154 283 1200 277 1246.2 296.5C1292.3 316 1338.7 361 1384.8 383.5C1431 406 1477 406 1523.2 374.5C1569.3 343 1615.7 280 1661.8 254.5C1708 229 1754 241 1777 247L1800 253L1800 215L1777 212C1754 209 1708 203 1661.8 231.5C1615.7 260 1569.3 323 1523.2 350C1477 377 1431 368 1384.8 344C1338.7 320 1292.3 281 1246.2 266C1200 251 1154 260 1107.8 266C1061.7 272 1015.3 275 969.2 270.5C923 266 877 254 830.8 245C784.7 236 738.3 230 692.2 242C646 254 600 284 553.8 287C507.7 290 461.3 266 415.2 261.5C369 257 323 272 276.8 278C230.7 284 184.3 281 138.2 282.5C92 284 46 290 23 293L0 296Z" fill="#9757a1"></path><path d="M0 406L23 395.5C46 385 92 364 138.2 361C184.3 358 230.7 373 276.8 370C323 367 369 346 415.2 355C461.3 364 507.7 403 553.8 406C600 409 646 376 692.2 359.5C738.3 343 784.7 343 830.8 349C877 355 923 367 969.2 365.5C1015.3 364 1061.7 349 1107.8 338.5C1154 328 1200 322 1246.2 349C1292.3 376 1338.7 436 1384.8 458.5C1431 481 1477 466 1523.2 434.5C1569.3 403 1615.7 355 1661.8 329.5C1708 304 1754 301 1777 299.5L1800 298L1800 251L1777 245C1754 239 1708 227 1661.8 252.5C1615.7 278 1569.3 341 1523.2 372.5C1477 404 1431 404 1384.8 381.5C1338.7 359 1292.3 314 1246.2 294.5C1200 275 1154 281 1107.8 287C1061.7 293 1015.3 299 969.2 296C923 293 877 281 830.8 275C784.7 269 738.3 269 692.2 282.5C646 296 600 323 553.8 323C507.7 323 461.3 296 415.2 288.5C369 281 323 293 276.8 300.5C230.7 308 184.3 311 138.2 315.5C92 320 46 326 23 329L0 332Z" fill="#7a248b"></path><path d="M0 505L23 494.5C46 484 92 463 138.2 458.5C184.3 454 230.7 466 276.8 454C323 442 369 406 415.2 409C461.3 412 507.7 454 553.8 464.5C600 475 646 454 692.2 443.5C738.3 433 784.7 433 830.8 431.5C877 430 923 427 969.2 422.5C1015.3 418 1061.7 412 1107.8 404.5C1154 397 1200 388 1246.2 409C1292.3 430 1338.7 481 1384.8 502C1431 523 1477 514 1523.2 487C1569.3 460 1615.7 415 1661.8 389.5C1708 364 1754 358 1777 355L1800 352L1800 296L1777 297.5C1754 299 1708 302 1661.8 327.5C1615.7 353 1569.3 401 1523.2 432.5C1477 464 1431 479 1384.8 456.5C1338.7 434 1292.3 374 1246.2 347C1200 320 1154 326 1107.8 336.5C1061.7 347 1015.3 362 969.2 363.5C923 365 877 353 830.8 347C784.7 341 738.3 341 692.2 357.5C646 374 600 407 553.8 404C507.7 401 461.3 362 415.2 353C369 344 323 365 276.8 368C230.7 371 184.3 356 138.2 359C92 362 46 383 23 393.5L0 404Z" fill="#6e0082"></path><path d="M0 568L23 556C46 544 92 520 138.2 511C184.3 502 230.7 508 276.8 494.5C323 481 369 448 415.2 455.5C461.3 463 507.7 511 553.8 518.5C600 526 646 493 692.2 479.5C738.3 466 784.7 472 830.8 476.5C877 481 923 484 969.2 478C1015.3 472 1061.7 457 1107.8 443.5C1154 430 1200 418 1246.2 440.5C1292.3 463 1338.7 520 1384.8 548.5C1431 577 1477 577 1523.2 550C1569.3 523 1615.7 469 1661.8 436C1708 403 1754 391 1777 385L1800 379L1800 350L1777 353C1754 356 1708 362 1661.8 387.5C1615.7 413 1569.3 458 1523.2 485C1477 512 1431 521 1384.8 500C1338.7 479 1292.3 428 1246.2 407C1200 386 1154 395 1107.8 402.5C1061.7 410 1015.3 416 969.2 420.5C923 425 877 428 830.8 429.5C784.7 431 738.3 431 692.2 441.5C646 452 600 473 553.8 462.5C507.7 452 461.3 410 415.2 407C369 404 323 440 276.8 452C230.7 464 184.3 452 138.2 456.5C92 461 46 482 23 492.5L0 503Z" fill="#6e0082"></path><path d="M0 703L23 691C46 679 92 655 138.2 646C184.3 637 230.7 643 276.8 638.5C323 634 369 619 415.2 623.5C461.3 628 507.7 652 553.8 659.5C600 667 646 658 692.2 661C738.3 664 784.7 679 830.8 682C877 685 923 676 969.2 671.5C1015.3 667 1061.7 667 1107.8 662.5C1154 658 1200 649 1246.2 661C1292.3 673 1338.7 706 1384.8 716.5C1431 727 1477 715 1523.2 710.5C1569.3 706 1615.7 709 1661.8 694C1708 679 1754 646 1777 629.5L1800 613L1800 377L1777 383C1754 389 1708 401 1661.8 434C1615.7 467 1569.3 521 1523.2 548C1477 575 1431 575 1384.8 546.5C1338.7 518 1292.3 461 1246.2 438.5C1200 416 1154 428 1107.8 441.5C1061.7 455 1015.3 470 969.2 476C923 482 877 479 830.8 474.5C784.7 470 738.3 464 692.2 477.5C646 491 600 524 553.8 516.5C507.7 509 461.3 461 415.2 453.5C369 446 323 479 276.8 492.5C230.7 506 184.3 500 138.2 509C92 518 46 542 23 554L0 566Z" fill="#7a248b"></path><path d="M0 757L23 739C46 721 92 685 138.2 674.5C184.3 664 230.7 679 276.8 680.5C323 682 369 670 415.2 673C461.3 676 507.7 694 553.8 697C600 700 646 688 692.2 694C738.3 700 784.7 724 830.8 728.5C877 733 923 718 969.2 710.5C1015.3 703 1061.7 703 1107.8 695.5C1154 688 1200 673 1246.2 682C1292.3 691 1338.7 724 1384.8 737.5C1431 751 1477 745 1523.2 740.5C1569.3 736 1615.7 733 1661.8 721C1708 709 1754 688 1777 677.5L1800 667L1800 611L1777 627.5C1754 644 1708 677 1661.8 692C1615.7 707 1569.3 704 1523.2 708.5C1477 713 1431 725 1384.8 714.5C1338.7 704 1292.3 671 1246.2 659C1200 647 1154 656 1107.8 660.5C1061.7 665 1015.3 665 969.2 669.5C923 674 877 683 830.8 680C784.7 677 738.3 662 692.2 659C646 656 600 665 553.8 657.5C507.7 650 461.3 626 415.2 621.5C369 617 323 632 276.8 636.5C230.7 641 184.3 635 138.2 644C92 653 46 677 23 689L0 701Z" fill="#9757a1"></path><path d="M0 784L23 770.5C46 757 92 730 138.2 721C184.3 712 230.7 721 276.8 722.5C323 724 369 718 415.2 722.5C461.3 727 507.7 742 553.8 743.5C600 745 646 733 692.2 736C738.3 739 784.7 757 830.8 763C877 769 923 763 969.2 758.5C1015.3 754 1061.7 751 1107.8 740.5C1154 730 1200 712 1246.2 719.5C1292.3 727 1338.7 760 1384.8 772C1431 784 1477 775 1523.2 776.5C1569.3 778 1615.7 790 1661.8 778C1708 766 1754 730 1777 712L1800 694L1800 665L1777 675.5C1754 686 1708 707 1661.8 719C1615.7 731 1569.3 734 1523.2 738.5C1477 743 1431 749 1384.8 735.5C1338.7 722 1292.3 689 1246.2 680C1200 671 1154 686 1107.8 693.5C1061.7 701 1015.3 701 969.2 708.5C923 716 877 731 830.8 726.5C784.7 722 738.3 698 692.2 692C646 686 600 698 553.8 695C507.7 692 461.3 674 415.2 671C369 668 323 680 276.8 678.5C230.7 677 184.3 662 138.2 672.5C92 683 46 719 23 737L0 755Z" fill="#b286b8"></path><path d="M0 865L23 862C46 859 92 853 138.2 851.5C184.3 850 230.7 853 276.8 854.5C323 856 369 856 415.2 860.5C461.3 865 507.7 874 553.8 872.5C600 871 646 859 692.2 853C738.3 847 784.7 847 830.8 848.5C877 850 923 853 969.2 857.5C1015.3 862 1061.7 868 1107.8 868C1154 868 1200 862 1246.2 863.5C1292.3 865 1338.7 874 1384.8 877C1431 880 1477 877 1523.2 875.5C1569.3 874 1615.7 874 1661.8 871C1708 868 1754 862 1777 859L1800 856L1800 692L1777 710C1754 728 1708 764 1661.8 776C1615.7 788 1569.3 776 1523.2 774.5C1477 773 1431 782 1384.8 770C1338.7 758 1292.3 725 1246.2 717.5C1200 710 1154 728 1107.8 738.5C1061.7 749 1015.3 752 969.2 756.5C923 761 877 767 830.8 761C784.7 755 738.3 737 692.2 734C646 731 600 743 553.8 741.5C507.7 740 461.3 725 415.2 720.5C369 716 323 722 276.8 720.5C230.7 719 184.3 710 138.2 719C92 728 46 755 23 768.5L0 782Z" fill="#ccb5ce"></path><path d="M0 901L23 901C46 901 92 901 138.2 901C184.3 901 230.7 901 276.8 901C323 901 369 901 415.2 901C461.3 901 507.7 901 553.8 901C600 901 646 901 692.2 901C738.3 901 784.7 901 830.8 901C877 901 923 901 969.2 901C1015.3 901 1061.7 901 1107.8 901C1154 901 1200 901 1246.2 901C1292.3 901 1338.7 901 1384.8 901C1431 901 1477 901 1523.2 901C1569.3 901 1615.7 901 1661.8 901C1708 901 1754 901 1777 901L1800 901L1800 854L1777 857C1754 860 1708 866 1661.8 869C1615.7 872 1569.3 872 1523.2 873.5C1477 875 1431 878 1384.8 875C1338.7 872 1292.3 863 1246.2 861.5C1200 860 1154 866 1107.8 866C1061.7 866 1015.3 860 969.2 855.5C923 851 877 848 830.8 846.5C784.7 845 738.3 845 692.2 851C646 857 600 869 553.8 870.5C507.7 872 461.3 863 415.2 858.5C369 854 323 854 276.8 852.5C230.7 851 184.3 848 138.2 849.5C92 851 46 857 23 860L0 863Z" fill="#e5e5e5"></path></svg>